<svg id="svg" version="1.1" xmlns="http://www.w3.org/2000/svg" xmlns:xlink="http://www.w3.org/1999/xlink" width="400" height="400" viewBox="0, 0, 400,400"><g id="svgg"><path id="path0" d="M202.000 95.936 C 202.000 96.121,202.268 97.156,202.596 98.236 C 204.867 105.724,200.717 118.528,192.627 128.987 C 189.561 132.951,185.998 136.726,173.583 149.164 C 167.963 154.794,162.383 160.482,161.183 161.804 C 155.420 168.151,155.416 168.156,151.136 173.454 C 120.445 211.448,120.129 257.873,150.395 282.333 C 153.372 284.739,161.969 290.400,162.645 290.400 C 162.717 290.400,163.817 290.869,165.088 291.443 C 167.322 292.451,168.553 292.979,170.919 293.944 C 173.683 295.071,174.310 294.481,171.995 292.932 C 166.304 289.125,159.152 279.798,157.443 273.955 C 157.289 273.430,156.875 272.010,156.523 270.800 C 154.041 262.269,156.799 249.940,163.368 240.200 C 165.554 236.960,173.465 228.400,174.274 228.400 C 174.453 228.400,174.600 230.875,174.600 233.900 C 174.600 242.918,179.174 248.400,186.699 248.400 C 199.183 248.400,202.827 232.059,192.692 221.529 C 181.215 209.605,180.408 193.203,190.744 181.900 C 192.187 180.322,192.311 180.468,192.311 183.749 C 192.311 192.245,197.606 198.255,215.781 210.392 C 219.511 212.883,222.751 215.075,222.981 215.263 C 223.212 215.452,225.284 216.993,227.586 218.688 C 257.732 240.882,259.380 276.039,231.049 292.588 C 227.888 294.435,228.129 294.817,231.689 293.604 C 234.535 292.633,234.529 292.636,239.340 290.434 C 272.874 275.089,289.047 242.468,278.722 211.000 C 274.026 196.690,263.055 183.225,248.114 173.436 C 243.274 170.265,243.345 170.272,243.116 172.900 C 242.195 183.463,228.121 188.096,220.866 180.225 C 214.695 173.531,214.268 167.036,218.816 149.062 C 222.311 135.250,221.980 127.055,217.499 116.400 C 216.299 113.546,215.927 112.800,213.955 109.300 C 211.145 104.313,202.000 94.090,202.000 95.936 " stroke="none" fill="#fafafb" fill-rule="evenodd"></path><path id="path1" d="M193.780 45.178 C 193.571 45.385,192.005 45.592,190.300 45.636 C 188.595 45.680,187.200 45.871,187.200 46.058 C 187.200 46.246,186.246 46.400,185.080 46.400 C 183.914 46.400,182.789 46.571,182.579 46.781 C 182.370 46.990,181.524 47.207,180.699 47.263 C 179.875 47.318,179.200 47.507,179.200 47.682 C 179.200 47.857,178.581 48.000,177.824 48.000 C 177.067 48.000,176.336 48.180,176.200 48.400 C 176.064 48.620,175.513 48.800,174.976 48.800 C 174.439 48.800,174.000 48.980,174.000 49.200 C 174.000 49.420,173.460 49.600,172.800 49.600 C 172.140 49.600,171.600 49.780,171.600 50.000 C 171.600 50.220,171.161 50.400,170.624 50.400 C 170.087 50.400,169.536 50.580,169.400 50.800 C 169.264 51.020,168.623 51.200,167.976 51.200 C 167.329 51.200,166.800 51.380,166.800 51.600 C 166.800 51.820,166.440 52.000,166.000 52.000 C 165.560 52.000,165.200 52.180,165.200 52.400 C 165.200 52.620,164.840 52.800,164.400 52.800 C 163.960 52.800,163.600 52.980,163.600 53.200 C 163.600 53.420,163.257 53.600,162.838 53.600 C 162.022 53.600,158.688 55.201,158.467 55.700 C 158.393 55.865,158.028 56.000,157.655 56.000 C 157.282 56.000,156.717 56.360,156.400 56.800 C 156.083 57.240,155.503 57.600,155.112 57.600 C 154.720 57.600,154.400 57.758,154.400 57.950 C 154.400 58.142,153.882 58.404,153.248 58.530 C 152.615 58.657,151.826 59.031,151.496 59.361 C 151.166 59.692,150.784 59.850,150.648 59.714 C 150.511 59.578,150.400 59.677,150.400 59.933 C 150.400 60.190,150.059 60.400,149.643 60.400 C 149.226 60.400,148.778 60.681,148.646 61.025 C 148.514 61.369,148.248 61.554,148.056 61.435 C 147.864 61.316,147.385 61.575,146.991 62.009 C 146.598 62.444,145.984 62.800,145.626 62.800 C 145.269 62.800,144.717 63.160,144.400 63.600 C 144.083 64.040,143.633 64.400,143.400 64.400 C 143.167 64.400,142.717 64.760,142.400 65.200 C 142.083 65.640,141.575 66.000,141.272 66.000 C 140.969 66.000,140.217 66.540,139.600 67.200 C 138.983 67.860,138.267 68.400,138.008 68.400 C 137.749 68.400,136.846 69.120,136.000 70.000 C 135.154 70.880,134.254 71.600,134.000 71.600 C 133.746 71.600,132.846 72.320,132.000 73.200 C 131.154 74.080,130.263 74.800,130.020 74.800 C 129.776 74.800,128.384 75.970,126.925 77.400 C 125.467 78.830,124.152 80.000,124.004 80.000 C 123.492 80.000,107.600 95.908,107.600 96.420 C 107.600 96.703,107.494 96.827,107.363 96.697 C 107.068 96.402,101.200 102.228,101.200 102.816 C 101.200 103.052,98.950 105.464,96.200 108.177 C 93.450 110.889,91.200 113.321,91.200 113.580 C 91.200 113.840,90.300 114.929,89.200 116.000 C 88.100 117.071,87.200 118.154,87.200 118.405 C 87.200 118.657,86.480 119.554,85.600 120.400 C 84.720 121.246,84.000 122.146,84.000 122.400 C 84.000 122.654,83.280 123.554,82.400 124.400 C 81.520 125.246,80.800 126.041,80.800 126.168 C 80.800 126.295,80.080 127.163,79.200 128.097 C 78.320 129.031,77.600 129.940,77.600 130.116 C 77.600 130.292,77.195 130.870,76.700 131.399 C 75.178 133.027,74.800 133.549,74.800 134.023 C 74.800 134.274,74.260 134.983,73.600 135.600 C 72.940 136.217,72.400 136.937,72.400 137.200 C 72.400 137.463,71.860 138.183,71.200 138.800 C 70.540 139.417,70.000 140.137,70.000 140.400 C 70.000 140.663,69.460 141.383,68.800 142.000 C 68.140 142.617,67.600 143.291,67.600 143.498 C 67.600 143.706,67.240 144.202,66.800 144.600 C 66.360 144.998,66.000 145.484,66.000 145.679 C 66.000 145.874,65.640 146.420,65.200 146.892 C 64.760 147.364,64.400 147.987,64.400 148.275 C 64.400 148.564,64.220 148.800,64.000 148.800 C 63.780 148.800,63.600 149.120,63.600 149.512 C 63.600 149.903,63.240 150.483,62.800 150.800 C 62.360 151.117,62.000 151.697,62.000 152.088 C 62.000 152.480,61.857 152.800,61.681 152.800 C 61.310 152.800,58.400 158.403,58.400 159.118 C 58.400 159.383,58.220 159.600,58.000 159.600 C 57.780 159.600,57.600 160.061,57.600 160.624 C 57.600 161.204,57.427 161.540,57.200 161.400 C 56.980 161.264,56.800 161.523,56.800 161.976 C 56.800 162.429,56.620 162.800,56.400 162.800 C 56.180 162.800,56.000 163.149,56.000 163.576 C 56.000 164.003,55.820 164.464,55.600 164.600 C 55.380 164.736,55.200 165.287,55.200 165.824 C 55.200 166.361,55.020 166.800,54.800 166.800 C 54.580 166.800,54.400 167.160,54.400 167.600 C 54.400 168.040,54.220 168.400,54.000 168.400 C 53.780 168.400,53.600 168.940,53.600 169.600 C 53.600 170.260,53.420 170.800,53.200 170.800 C 52.980 170.800,52.800 171.340,52.800 172.000 C 52.800 172.660,52.620 173.200,52.400 173.200 C 52.180 173.200,52.000 173.560,52.000 174.000 C 52.000 174.440,51.820 174.800,51.600 174.800 C 51.380 174.800,51.200 175.419,51.200 176.176 C 51.200 176.933,51.020 177.664,50.800 177.800 C 50.580 177.936,50.400 178.487,50.400 179.024 C 50.400 179.561,50.220 180.000,50.000 180.000 C 49.780 180.000,49.600 180.540,49.600 181.200 C 49.600 181.860,49.420 182.400,49.200 182.400 C 48.980 182.400,48.800 183.120,48.800 184.000 C 48.800 184.880,48.620 185.600,48.400 185.600 C 48.180 185.600,48.000 186.309,48.000 187.176 C 48.000 188.043,47.820 188.864,47.600 189.000 C 47.380 189.136,47.200 190.047,47.200 191.024 C 47.200 192.001,47.020 192.800,46.800 192.800 C 46.580 192.800,46.400 193.599,46.400 194.576 C 46.400 195.553,46.220 196.464,46.000 196.600 C 45.780 196.736,45.600 197.827,45.600 199.024 C 45.600 200.221,45.420 201.200,45.200 201.200 C 44.945 201.200,44.800 204.525,44.800 210.376 C 44.800 216.063,44.952 219.647,45.200 219.800 C 45.420 219.936,45.600 221.207,45.600 222.624 C 45.600 224.075,45.775 225.200,46.000 225.200 C 46.220 225.200,46.400 226.100,46.400 227.200 C 46.400 228.300,46.580 229.200,46.800 229.200 C 47.020 229.200,47.200 229.920,47.200 230.800 C 47.200 231.680,47.380 232.400,47.600 232.400 C 47.820 232.400,48.000 233.019,48.000 233.776 C 48.000 234.533,48.180 235.264,48.400 235.400 C 48.620 235.536,48.800 236.076,48.800 236.600 C 48.800 237.124,48.980 237.664,49.200 237.800 C 49.420 237.936,49.600 238.487,49.600 239.024 C 49.600 239.561,49.780 240.000,50.000 240.000 C 50.220 240.000,50.400 240.360,50.400 240.800 C 50.400 241.240,50.580 241.600,50.800 241.600 C 51.020 241.600,51.200 242.140,51.200 242.800 C 51.200 243.460,51.380 244.000,51.600 244.000 C 51.820 244.000,52.000 244.360,52.000 244.800 C 52.000 245.240,52.180 245.600,52.400 245.600 C 52.620 245.600,52.800 245.960,52.800 246.400 C 52.800 246.840,52.980 247.200,53.200 247.200 C 53.420 247.200,53.600 247.700,53.600 248.312 C 53.600 248.965,53.930 249.661,54.400 250.000 C 54.840 250.317,55.200 250.897,55.200 251.288 C 55.200 251.680,55.380 252.000,55.600 252.000 C 55.820 252.000,56.000 252.360,56.000 252.800 C 56.000 253.240,56.180 253.600,56.400 253.600 C 56.620 253.600,56.800 253.960,56.800 254.400 C 56.800 254.840,56.980 255.200,57.200 255.200 C 57.420 255.200,57.600 255.560,57.600 256.000 C 57.600 256.440,57.760 256.800,57.957 256.800 C 58.153 256.800,58.426 257.250,58.564 257.800 C 58.702 258.350,58.992 258.800,59.208 258.800 C 59.423 258.800,59.600 259.160,59.600 259.600 C 59.600 260.040,59.758 260.400,59.951 260.400 C 60.145 260.400,60.527 260.940,60.800 261.600 C 61.073 262.260,61.455 262.800,61.649 262.800 C 61.842 262.800,62.000 263.117,62.000 263.504 C 62.000 263.891,62.360 264.432,62.800 264.707 C 63.240 264.982,63.600 265.526,63.600 265.915 C 63.600 266.305,63.960 266.883,64.400 267.200 C 64.840 267.517,65.200 267.980,65.200 268.229 C 65.200 268.478,65.740 269.246,66.400 269.937 C 67.060 270.628,67.600 271.361,67.600 271.566 C 67.600 271.771,68.320 272.644,69.200 273.507 C 70.080 274.369,70.800 275.207,70.800 275.369 C 70.800 275.531,71.520 276.354,72.400 277.200 C 73.280 278.046,74.000 278.940,74.000 279.187 C 74.000 279.434,74.450 280.086,75.000 280.636 C 75.550 281.186,76.000 281.808,76.000 282.018 C 76.000 282.228,76.258 282.400,76.573 282.400 C 76.888 282.400,77.255 282.743,77.388 283.163 C 77.521 283.583,77.894 284.027,78.215 284.150 C 78.537 284.274,78.802 284.606,78.805 284.887 C 78.810 285.409,79.474 286.110,87.600 294.179 C 90.130 296.691,93.653 300.244,95.430 302.073 C 99.444 306.208,102.295 308.800,102.830 308.800 C 103.251 308.800,107.490 312.982,110.045 315.918 C 110.839 316.831,111.604 317.463,111.745 317.322 C 111.885 317.182,112.000 317.336,112.000 317.666 C 112.000 317.995,112.490 318.520,113.089 318.832 C 113.689 319.145,114.880 320.075,115.738 320.900 C 116.595 321.725,117.463 322.400,117.666 322.400 C 117.870 322.400,118.452 322.805,118.959 323.300 C 120.656 324.954,122.002 326.000,122.434 326.000 C 122.670 326.000,123.554 326.720,124.400 327.600 C 125.246 328.480,126.056 329.200,126.200 329.200 C 126.344 329.200,127.154 329.920,128.000 330.800 C 128.846 331.680,129.746 332.400,130.000 332.400 C 130.254 332.400,131.154 333.120,132.000 334.000 C 132.846 334.880,133.749 335.600,134.008 335.600 C 134.267 335.600,134.983 336.140,135.600 336.800 C 136.217 337.460,136.920 338.000,137.164 338.000 C 137.408 338.000,138.172 338.540,138.863 339.200 C 139.554 339.860,140.285 340.400,140.488 340.400 C 140.691 340.400,141.108 340.625,141.415 340.900 C 142.614 341.976,143.176 342.400,143.400 342.400 C 143.528 342.400,144.020 342.760,144.492 343.200 C 144.964 343.640,145.587 344.000,145.875 344.000 C 146.164 344.000,146.400 344.180,146.400 344.400 C 146.400 344.620,146.720 344.800,147.112 344.800 C 147.503 344.800,148.083 345.160,148.400 345.600 C 148.717 346.040,149.257 346.400,149.600 346.400 C 149.943 346.400,150.483 346.760,150.800 347.200 C 151.117 347.640,151.697 348.000,152.088 348.000 C 152.480 348.000,152.800 348.180,152.800 348.400 C 152.800 348.620,153.120 348.800,153.512 348.800 C 153.903 348.800,154.483 349.160,154.800 349.600 C 155.117 350.040,155.697 350.400,156.088 350.400 C 156.480 350.400,156.800 350.580,156.800 350.800 C 156.800 351.020,157.160 351.200,157.600 351.200 C 158.040 351.200,158.400 351.380,158.400 351.600 C 158.400 351.820,158.760 352.000,159.200 352.000 C 159.640 352.000,160.001 352.135,160.003 352.300 C 160.007 352.706,161.986 353.600,162.880 353.600 C 163.276 353.600,163.600 353.780,163.600 354.000 C 163.600 354.220,163.960 354.400,164.400 354.400 C 164.840 354.400,165.200 354.580,165.200 354.800 C 165.200 355.020,165.549 355.200,165.976 355.200 C 166.403 355.200,166.864 355.380,167.000 355.600 C 167.136 355.820,167.687 356.000,168.224 356.000 C 168.761 356.000,169.200 356.180,169.200 356.400 C 169.200 356.620,169.740 356.800,170.400 356.800 C 171.060 356.800,171.600 357.001,171.600 357.247 C 171.600 357.496,171.953 357.601,172.400 357.484 C 172.840 357.369,173.200 357.438,173.200 357.637 C 173.200 357.837,173.639 358.000,174.176 358.000 C 174.713 358.000,175.264 358.180,175.400 358.400 C 175.536 358.620,176.256 358.800,177.000 358.800 C 177.744 358.800,178.464 358.980,178.600 359.200 C 178.736 359.420,179.276 359.600,179.800 359.600 C 180.324 359.600,180.864 359.780,181.000 360.000 C 181.136 360.220,181.867 360.400,182.624 360.400 C 183.381 360.400,184.000 360.580,184.000 360.800 C 184.000 361.020,184.720 361.200,185.600 361.200 C 186.480 361.200,187.200 361.380,187.200 361.600 C 187.200 361.820,187.920 362.000,188.800 362.000 C 189.680 362.000,190.400 362.180,190.400 362.400 C 190.400 362.620,191.210 362.800,192.200 362.800 C 193.190 362.800,194.000 362.980,194.000 363.200 C 194.000 363.420,194.900 363.600,196.000 363.600 C 197.100 363.600,198.000 363.780,198.000 364.000 C 198.000 364.222,199.067 364.400,200.400 364.400 C 201.733 364.400,202.800 364.578,202.800 364.800 C 202.800 365.341,216.266 365.341,216.600 364.800 C 216.736 364.580,218.277 364.400,220.024 364.400 C 221.875 364.400,223.200 364.233,223.200 364.000 C 223.200 363.780,224.010 363.600,225.000 363.600 C 225.990 363.600,226.800 363.420,226.800 363.200 C 226.800 362.980,227.520 362.800,228.400 362.800 C 229.280 362.800,230.000 362.620,230.000 362.400 C 230.000 362.180,230.720 362.000,231.600 362.000 C 232.480 362.000,233.200 361.820,233.200 361.600 C 233.200 361.380,233.740 361.200,234.400 361.200 C 235.060 361.200,235.600 361.020,235.600 360.800 C 235.600 360.580,236.140 360.400,236.800 360.400 C 237.460 360.400,238.000 360.220,238.000 360.000 C 238.000 359.780,238.540 359.600,239.200 359.600 C 239.860 359.600,240.400 359.420,240.400 359.200 C 240.400 358.980,240.839 358.800,241.376 358.800 C 241.913 358.800,242.455 358.634,242.581 358.431 C 242.706 358.228,243.392 357.937,244.105 357.784 C 244.817 357.631,246.109 357.167,246.975 356.753 C 247.841 356.339,248.786 356.000,249.075 356.000 C 249.364 356.000,249.600 355.820,249.600 355.600 C 249.600 355.380,249.971 355.200,250.424 355.200 C 250.877 355.200,251.136 355.020,251.000 354.800 C 250.864 354.580,251.016 354.400,251.339 354.400 C 252.022 354.400,255.338 352.740,255.533 352.300 C 255.607 352.135,255.839 352.000,256.050 352.000 C 256.261 352.000,256.820 351.640,257.292 351.200 C 257.764 350.760,258.437 350.400,258.787 350.400 C 259.137 350.400,259.683 350.040,260.000 349.600 C 260.317 349.160,260.857 348.800,261.200 348.800 C 261.543 348.800,262.083 348.440,262.400 348.000 C 262.717 347.560,263.257 347.200,263.600 347.200 C 263.943 347.200,264.483 346.840,264.800 346.400 C 265.117 345.960,265.657 345.600,266.000 345.600 C 266.343 345.600,266.883 345.240,267.200 344.800 C 267.517 344.360,268.025 344.000,268.328 344.000 C 268.631 344.000,269.383 343.460,270.000 342.800 C 270.617 342.140,271.342 341.600,271.612 341.600 C 272.084 341.600,273.957 340.121,276.689 337.593 C 277.397 336.937,278.141 336.400,278.341 336.400 C 278.541 336.400,279.983 335.140,281.544 333.600 C 283.106 332.060,284.543 330.800,284.738 330.800 C 285.266 330.800,292.400 323.651,292.400 323.122 C 292.400 322.871,292.501 322.768,292.625 322.892 C 292.922 323.188,303.515 312.688,303.311 312.300 C 303.224 312.135,303.364 312.000,303.622 312.000 C 303.880 312.000,304.746 311.248,305.546 310.329 C 306.346 309.410,307.405 308.248,307.900 307.747 C 308.395 307.246,308.800 306.733,308.800 306.606 C 308.800 306.480,310.960 304.227,313.600 301.600 C 316.240 298.973,318.400 296.624,318.400 296.380 C 318.400 296.137,319.081 295.276,319.913 294.469 C 320.745 293.661,321.867 292.370,322.407 291.600 C 322.946 290.830,323.795 289.819,324.294 289.354 C 324.792 288.889,325.200 288.286,325.200 288.014 C 325.200 287.743,326.100 286.639,327.200 285.562 C 328.300 284.485,329.200 283.409,329.200 283.171 C 329.200 282.932,329.920 282.046,330.800 281.200 C 331.680 280.354,332.400 279.454,332.400 279.200 C 332.400 278.946,333.120 278.046,334.000 277.200 C 334.880 276.354,335.600 275.445,335.600 275.178 C 335.600 274.912,335.972 274.371,336.426 273.977 C 336.881 273.583,337.262 273.112,337.274 272.930 C 337.308 272.397,338.254 271.187,338.469 271.402 C 338.577 271.510,338.921 271.104,339.233 270.499 C 339.545 269.895,340.205 268.952,340.700 268.404 C 341.195 267.856,341.600 267.131,341.600 266.792 C 341.600 266.454,341.960 265.917,342.400 265.600 C 342.840 265.283,343.200 264.743,343.200 264.400 C 343.200 264.057,343.560 263.517,344.000 263.200 C 344.440 262.883,344.800 262.343,344.800 262.000 C 344.800 261.657,345.160 261.117,345.600 260.800 C 346.040 260.483,346.400 259.903,346.400 259.512 C 346.400 259.120,346.580 258.800,346.800 258.800 C 347.020 258.800,347.200 258.530,347.200 258.200 C 347.200 257.870,347.380 257.600,347.600 257.600 C 347.820 257.600,348.000 257.330,348.000 257.000 C 348.000 256.670,348.180 256.400,348.400 256.400 C 348.620 256.400,348.800 256.130,348.800 255.800 C 348.800 255.470,348.980 255.200,349.200 255.200 C 349.420 255.200,349.600 254.840,349.600 254.400 C 349.600 253.960,349.780 253.600,350.000 253.600 C 350.220 253.600,350.400 253.240,350.400 252.800 C 350.400 252.360,350.580 252.000,350.800 252.000 C 351.020 252.000,351.200 251.640,351.200 251.200 C 351.200 250.760,351.380 250.400,351.600 250.400 C 351.820 250.400,352.000 250.040,352.000 249.600 C 352.000 249.160,352.180 248.800,352.400 248.800 C 352.620 248.800,352.800 248.440,352.800 248.000 C 352.800 247.560,352.980 247.200,353.200 247.200 C 353.420 247.200,353.600 246.851,353.600 246.424 C 353.600 245.997,353.780 245.536,354.000 245.400 C 354.220 245.264,354.400 244.713,354.400 244.176 C 354.400 243.639,354.580 243.200,354.800 243.200 C 355.020 243.200,355.200 242.840,355.200 242.400 C 355.200 241.960,355.380 241.600,355.600 241.600 C 355.820 241.600,356.000 241.186,356.000 240.680 C 356.000 240.174,356.148 239.589,356.329 239.380 C 356.510 239.171,356.983 237.920,357.379 236.600 C 357.775 235.280,358.257 233.887,358.450 233.505 C 358.642 233.123,358.800 232.178,358.800 231.405 C 358.800 230.632,358.980 230.000,359.200 230.000 C 359.420 230.000,359.600 229.460,359.600 228.800 C 359.600 228.140,359.780 227.600,360.000 227.600 C 360.220 227.600,360.400 226.880,360.400 226.000 C 360.400 225.120,360.580 224.400,360.800 224.400 C 361.020 224.400,361.200 223.770,361.200 223.000 C 361.200 222.230,361.380 221.600,361.600 221.600 C 361.820 221.600,362.000 220.700,362.000 219.600 C 362.000 218.500,362.180 217.600,362.400 217.600 C 362.620 217.600,362.800 216.700,362.800 215.600 C 362.800 214.500,362.980 213.600,363.200 213.600 C 363.420 213.600,363.600 212.700,363.600 211.600 C 363.600 210.500,363.780 209.600,364.000 209.600 C 364.256 209.600,364.400 206.133,364.400 200.000 C 364.400 193.867,364.256 190.400,364.000 190.400 C 363.771 190.400,363.600 189.200,363.600 187.600 C 363.600 186.000,363.429 184.800,363.200 184.800 C 362.980 184.800,362.800 184.001,362.800 183.024 C 362.800 182.047,362.620 181.136,362.400 181.000 C 362.180 180.864,362.000 180.144,362.000 179.400 C 362.000 178.656,361.820 177.936,361.600 177.800 C 361.380 177.664,361.200 177.113,361.200 176.576 C 361.200 176.039,361.020 175.600,360.800 175.600 C 360.580 175.600,360.400 175.060,360.400 174.400 C 360.400 173.740,360.220 173.200,360.000 173.200 C 359.780 173.200,359.600 172.660,359.600 172.000 C 359.600 171.340,359.420 170.800,359.200 170.800 C 358.980 170.800,358.800 170.271,358.800 169.624 C 358.800 168.977,358.634 168.345,358.431 168.219 C 358.228 168.094,357.937 167.408,357.784 166.695 C 357.631 165.983,357.167 164.691,356.753 163.825 C 356.339 162.959,356.000 162.003,356.000 161.701 C 356.000 161.400,355.847 161.247,355.660 161.363 C 355.472 161.479,355.084 160.859,354.796 159.987 C 354.508 159.114,354.121 158.400,353.936 158.400 C 353.751 158.400,353.600 158.040,353.600 157.600 C 353.600 157.160,353.420 156.800,353.200 156.800 C 352.980 156.800,352.800 156.440,352.800 156.000 C 352.800 155.560,352.620 155.200,352.400 155.200 C 352.180 155.200,352.000 154.840,352.000 154.400 C 352.000 153.960,351.820 153.600,351.600 153.600 C 351.380 153.600,351.200 153.358,351.200 153.062 C 351.200 152.766,350.840 152.198,350.400 151.800 C 349.960 151.402,349.600 150.784,349.600 150.426 C 349.600 150.069,349.240 149.517,348.800 149.200 C 348.360 148.883,348.000 148.303,348.000 147.912 C 348.000 147.520,347.820 147.200,347.600 147.200 C 347.380 147.200,347.200 146.964,347.200 146.675 C 347.200 146.387,346.840 145.764,346.400 145.292 C 345.960 144.820,345.600 144.310,345.600 144.160 C 345.600 144.010,345.060 143.371,344.400 142.740 C 343.740 142.109,343.200 141.364,343.200 141.085 C 343.200 140.805,342.840 140.317,342.400 140.000 C 341.960 139.683,341.600 139.122,341.600 138.754 C 341.600 138.387,341.330 137.982,341.000 137.855 C 340.670 137.729,340.400 137.416,340.400 137.159 C 340.400 136.903,340.068 136.403,339.663 136.047 C 339.257 135.691,338.691 134.950,338.403 134.400 C 338.116 133.850,337.368 132.969,336.741 132.442 C 336.113 131.915,335.600 131.253,335.600 130.971 C 335.600 130.689,335.126 130.085,334.546 129.629 C 333.966 129.173,333.627 128.800,333.792 128.800 C 333.956 128.800,333.170 127.936,332.045 126.880 C 330.920 125.823,330.000 124.831,330.000 124.673 C 330.000 124.516,328.695 123.068,327.100 121.456 C 325.505 119.843,323.935 118.136,323.612 117.662 C 323.288 117.188,322.783 116.800,322.488 116.800 C 322.194 116.800,322.033 116.665,322.130 116.500 C 322.228 116.335,320.511 114.490,318.314 112.400 C 316.117 110.310,312.811 107.115,310.966 105.300 C 309.121 103.485,307.518 102.000,307.404 102.000 C 307.291 102.000,305.326 100.155,303.039 97.900 C 297.812 92.748,296.084 91.200,295.555 91.200 C 295.325 91.200,294.424 90.480,293.553 89.600 C 292.682 88.720,291.886 88.000,291.785 88.000 C 291.684 88.000,290.859 87.280,289.952 86.400 C 289.045 85.520,288.130 84.800,287.919 84.800 C 287.707 84.800,286.629 83.900,285.524 82.800 C 284.418 81.700,283.289 80.800,283.015 80.800 C 282.740 80.800,282.085 80.287,281.558 79.659 C 281.031 79.032,280.164 78.289,279.631 78.008 C 279.097 77.727,278.251 77.116,277.750 76.649 C 276.190 75.196,275.648 74.800,275.220 74.800 C 274.993 74.800,274.582 74.440,274.307 74.000 C 274.032 73.560,273.581 73.200,273.304 73.200 C 273.027 73.200,272.800 73.020,272.800 72.800 C 272.800 72.580,272.618 72.400,272.396 72.400 C 272.174 72.400,271.428 71.860,270.737 71.200 C 270.046 70.540,269.278 70.000,269.029 70.000 C 268.780 70.000,268.317 69.640,268.000 69.200 C 267.683 68.760,267.143 68.400,266.800 68.400 C 266.457 68.400,265.917 68.040,265.600 67.600 C 265.283 67.160,264.743 66.800,264.400 66.800 C 264.057 66.800,263.517 66.440,263.200 66.000 C 262.883 65.560,262.343 65.200,262.000 65.200 C 261.657 65.200,261.117 64.840,260.800 64.400 C 260.483 63.960,259.931 63.600,259.574 63.600 C 259.216 63.600,258.598 63.240,258.200 62.800 C 257.802 62.360,257.234 62.000,256.938 62.000 C 256.642 62.000,256.400 61.854,256.400 61.675 C 256.400 61.496,255.770 61.102,255.000 60.800 C 254.230 60.498,253.600 60.085,253.600 59.883 C 253.600 59.680,253.347 59.612,253.038 59.730 C 252.728 59.849,252.160 59.598,251.776 59.173 C 251.391 58.748,250.564 58.400,249.938 58.400 C 249.312 58.400,248.800 58.220,248.800 58.000 C 248.800 57.780,248.440 57.600,248.000 57.600 C 247.560 57.600,247.200 57.420,247.200 57.200 C 247.200 56.980,246.840 56.800,246.400 56.800 C 245.960 56.800,245.600 56.620,245.600 56.400 C 245.600 56.180,245.240 56.000,244.800 56.000 C 244.360 56.000,244.000 55.820,244.000 55.600 C 244.000 55.380,243.460 55.200,242.800 55.200 C 242.140 55.200,241.599 55.065,241.597 54.900 C 241.593 54.494,239.614 53.600,238.720 53.600 C 238.324 53.600,238.000 53.420,238.000 53.200 C 238.000 52.980,237.471 52.800,236.824 52.800 C 236.177 52.800,235.536 52.620,235.400 52.400 C 235.264 52.180,234.713 52.000,234.176 52.000 C 233.639 52.000,233.200 51.820,233.200 51.600 C 233.200 51.380,232.660 51.200,232.000 51.200 C 231.340 51.200,230.800 51.020,230.800 50.800 C 230.800 50.580,230.260 50.400,229.600 50.400 C 228.940 50.400,228.400 50.220,228.400 50.000 C 228.400 49.780,227.680 49.600,226.800 49.600 C 225.920 49.600,225.200 49.420,225.200 49.200 C 225.200 48.980,224.581 48.800,223.824 48.800 C 223.067 48.800,222.336 48.620,222.200 48.400 C 222.064 48.180,221.153 48.000,220.176 48.000 C 219.199 48.000,218.400 47.820,218.400 47.600 C 218.400 47.380,217.691 47.200,216.824 47.200 C 215.957 47.200,215.136 47.020,215.000 46.800 C 214.864 46.580,213.773 46.400,212.576 46.400 C 211.379 46.400,210.400 46.220,210.400 46.000 C 210.400 45.780,209.511 45.600,208.424 45.600 C 207.337 45.600,206.336 45.420,206.200 45.200 C 205.882 44.686,194.296 44.665,193.780 45.178 M205.328 97.317 C 207.366 99.362,209.566 101.747,210.217 102.617 C 210.868 103.487,211.715 104.548,212.100 104.975 C 212.485 105.402,212.800 105.987,212.800 106.275 C 212.800 106.564,212.950 106.800,213.132 106.800 C 213.315 106.800,213.720 107.295,214.032 107.900 C 214.344 108.505,214.689 109.090,214.799 109.200 C 215.530 109.928,218.372 115.647,218.387 116.420 C 218.394 116.761,218.563 117.211,218.763 117.420 C 219.310 117.994,220.720 123.044,221.390 126.835 C 222.567 133.489,222.216 138.469,219.912 147.800 C 218.648 152.921,218.206 154.738,217.532 157.600 C 216.917 160.212,216.636 171.196,217.170 171.730 C 217.407 171.967,217.600 172.453,217.600 172.812 C 217.600 174.455,220.854 179.559,222.852 181.049 C 229.213 185.796,242.000 181.631,242.000 174.811 C 242.000 174.391,242.180 173.936,242.400 173.800 C 242.620 173.664,242.800 172.753,242.800 171.776 C 242.800 170.148,242.883 170.000,243.800 170.000 C 244.350 170.000,244.800 170.180,244.800 170.400 C 244.800 170.620,245.036 170.800,245.325 170.800 C 245.613 170.800,246.236 171.160,246.708 171.600 C 247.180 172.040,247.674 172.400,247.805 172.400 C 248.126 172.400,252.855 175.612,253.561 176.311 C 253.870 176.615,255.068 177.563,256.223 178.417 C 258.939 180.423,265.623 187.128,268.250 190.480 C 270.920 193.887,273.600 197.844,273.600 198.378 C 273.600 198.610,273.738 198.800,273.906 198.800 C 274.074 198.800,274.518 199.475,274.894 200.300 C 275.269 201.125,275.878 202.340,276.248 203.000 C 277.349 204.963,277.600 205.557,277.600 206.195 C 277.600 206.528,277.780 206.800,278.000 206.800 C 278.220 206.800,278.400 207.162,278.400 207.605 C 278.400 208.048,278.580 208.768,278.800 209.205 C 279.020 209.642,279.380 210.358,279.600 210.795 C 279.820 211.232,280.000 212.031,280.000 212.571 C 280.000 213.111,280.180 213.664,280.400 213.800 C 280.620 213.936,280.800 214.631,280.800 215.344 C 280.800 216.057,280.963 216.811,281.161 217.020 C 282.072 217.979,282.857 238.103,282.016 238.944 C 281.787 239.173,281.600 240.303,281.600 241.456 C 281.600 242.609,281.420 243.664,281.200 243.800 C 280.980 243.936,280.800 244.566,280.800 245.200 C 280.800 245.834,280.620 246.464,280.400 246.600 C 280.180 246.736,280.000 247.377,280.000 248.024 C 280.000 248.671,279.820 249.200,279.600 249.200 C 279.380 249.200,279.200 249.562,279.200 250.005 C 279.200 250.448,279.041 251.123,278.847 251.505 C 278.652 251.887,278.314 252.650,278.095 253.200 C 277.079 255.747,274.249 261.200,273.942 261.200 C 273.754 261.200,273.600 261.388,273.600 261.618 C 273.600 262.025,270.814 266.179,268.380 269.400 C 266.812 271.476,261.394 277.006,259.611 278.352 C 258.847 278.928,257.594 279.985,256.827 280.700 C 256.061 281.415,255.304 282.000,255.145 282.000 C 254.987 282.000,254.600 282.258,254.285 282.572 C 253.222 283.636,247.022 287.475,243.600 289.190 C 241.730 290.127,239.887 291.053,239.505 291.247 C 239.123 291.441,238.538 291.600,238.205 291.600 C 237.872 291.600,237.600 291.780,237.600 292.000 C 237.600 292.220,237.328 292.400,236.995 292.400 C 236.662 292.400,236.032 292.580,235.595 292.800 C 235.158 293.020,234.442 293.380,234.005 293.600 C 233.568 293.820,232.859 294.000,232.429 294.000 C 231.999 294.000,231.536 294.180,231.400 294.400 C 231.264 294.620,230.713 294.800,230.176 294.800 C 229.639 294.800,229.200 294.980,229.200 295.200 C 229.200 295.420,228.738 295.600,228.174 295.600 C 227.609 295.600,226.785 295.794,226.342 296.031 C 225.900 296.268,225.253 296.353,224.906 296.219 C 224.135 295.923,225.540 294.400,226.583 294.400 C 226.922 294.400,227.200 294.241,227.200 294.047 C 227.200 293.852,227.515 293.593,227.900 293.471 C 228.587 293.254,230.806 291.995,231.200 291.599 C 231.310 291.489,231.865 291.160,232.432 290.868 C 238.000 288.006,246.140 278.131,248.218 271.721 C 248.560 270.664,249.000 269.440,249.195 269.000 C 250.130 266.895,250.760 254.495,250.059 252.000 C 249.843 251.230,249.448 249.790,249.181 248.800 C 248.915 247.810,248.450 246.433,248.148 245.740 C 247.847 245.046,247.600 244.355,247.600 244.204 C 247.600 242.825,242.679 234.521,240.040 231.447 C 236.489 227.311,235.068 225.826,233.134 224.229 C 232.620 223.805,231.210 222.608,230.000 221.568 C 227.815 219.691,224.704 217.436,217.800 212.724 C 215.820 211.373,214.110 210.162,214.000 210.033 C 213.890 209.904,213.305 209.544,212.700 209.232 C 212.095 208.920,211.600 208.515,211.600 208.332 C 211.600 208.150,211.375 208.000,211.100 207.999 C 210.825 207.999,209.970 207.459,209.200 206.800 C 208.430 206.141,207.590 205.601,207.333 205.601 C 207.077 205.600,206.807 205.455,206.733 205.277 C 206.660 205.099,205.700 204.344,204.600 203.599 C 202.100 201.906,195.601 195.407,194.799 193.800 C 194.470 193.140,194.111 192.510,194.001 192.400 C 193.523 191.924,192.800 190.361,192.800 189.805 C 192.800 189.472,192.640 189.200,192.444 189.200 C 192.076 189.200,191.718 187.610,191.340 184.294 L 191.122 182.388 189.865 184.094 C 185.221 190.398,182.822 199.431,184.400 204.672 C 184.620 205.402,185.002 206.675,185.249 207.500 C 186.399 211.338,189.828 217.190,192.700 220.216 C 192.975 220.506,193.200 220.847,193.200 220.975 C 193.200 221.103,193.740 221.772,194.400 222.463 C 195.060 223.154,195.600 223.962,195.600 224.259 C 195.600 224.557,195.759 224.800,195.953 224.800 C 197.762 224.800,200.700 237.460,199.232 238.928 C 198.994 239.166,198.800 239.864,198.800 240.480 C 198.800 241.096,198.664 241.600,198.498 241.600 C 198.331 241.600,197.965 242.121,197.683 242.757 C 196.774 244.810,193.743 247.491,191.900 247.872 C 191.295 247.998,190.800 248.234,190.800 248.397 C 190.800 249.052,186.797 249.426,184.400 248.995 C 179.593 248.131,174.000 242.563,174.000 238.642 C 174.000 237.937,173.800 237.160,173.555 236.915 C 173.284 236.644,173.206 235.827,173.355 234.835 C 174.156 229.493,174.157 229.886,173.346 230.339 C 172.031 231.074,170.388 232.747,166.393 237.422 C 165.839 238.070,164.947 239.230,164.412 240.000 C 163.877 240.770,163.340 241.490,163.219 241.600 C 162.843 241.943,161.647 244.107,160.567 246.400 C 159.997 247.610,159.366 248.913,159.165 249.295 C 158.964 249.677,158.800 250.352,158.800 250.795 C 158.800 251.238,158.620 251.600,158.400 251.600 C 158.180 251.600,158.000 252.014,158.000 252.520 C 158.000 253.026,157.838 253.611,157.641 253.820 C 156.757 254.755,155.992 268.152,156.778 268.938 C 157.010 269.170,157.200 269.853,157.200 270.456 C 157.200 271.059,157.380 271.664,157.600 271.800 C 157.820 271.936,158.000 272.399,158.000 272.829 C 158.000 273.259,158.180 273.968,158.400 274.405 C 158.620 274.842,158.980 275.558,159.200 275.995 C 159.420 276.432,159.600 277.062,159.600 277.395 C 159.600 277.728,159.759 278.000,159.953 278.000 C 160.148 278.000,160.407 278.315,160.529 278.700 C 160.825 279.636,162.124 281.766,162.500 281.933 C 162.665 282.007,162.800 282.233,162.800 282.437 C 162.800 283.214,171.139 292.000,171.877 292.000 C 172.082 292.000,172.598 292.315,173.025 292.700 C 173.451 293.085,174.250 293.635,174.800 293.922 C 176.524 294.823,177.290 295.531,177.016 295.973 C 176.683 296.512,175.328 296.530,175.000 296.000 C 174.864 295.780,174.324 295.600,173.800 295.600 C 173.276 295.600,172.736 295.420,172.600 295.200 C 172.464 294.980,171.924 294.800,171.400 294.800 C 170.876 294.800,170.336 294.620,170.200 294.400 C 170.064 294.180,169.513 294.000,168.976 294.000 C 168.439 294.000,168.000 293.820,168.000 293.600 C 168.000 293.380,167.747 293.200,167.438 293.200 C 167.129 293.200,166.139 292.840,165.238 292.400 C 164.337 291.960,162.925 291.271,162.100 290.870 C 160.359 290.023,158.687 289.087,158.400 288.800 C 158.183 288.583,156.755 287.749,155.259 286.965 C 151.948 285.231,140.400 274.627,140.400 273.321 C 140.400 273.034,140.262 272.800,140.094 272.800 C 139.926 272.800,139.344 272.080,138.800 271.200 C 138.256 270.320,137.674 269.600,137.506 269.600 C 137.338 269.600,137.200 269.330,137.200 269.000 C 137.200 268.670,137.042 268.400,136.849 268.400 C 136.418 268.400,131.465 258.492,130.650 256.000 C 128.131 248.301,127.491 243.762,127.495 233.600 C 127.500 220.097,129.200 211.449,133.960 200.704 C 134.422 199.662,134.800 198.537,134.800 198.204 C 134.800 197.872,134.980 197.600,135.200 197.600 C 135.420 197.600,135.600 197.366,135.600 197.080 C 135.600 196.344,136.541 194.407,136.900 194.403 C 137.065 194.401,137.200 194.040,137.200 193.600 C 137.200 193.160,137.380 192.800,137.600 192.800 C 137.820 192.800,138.000 192.455,138.000 192.033 C 138.000 191.612,138.135 191.207,138.300 191.133 C 138.465 191.060,139.033 190.145,139.563 189.100 C 140.092 188.055,140.677 187.200,140.863 187.200 C 141.048 187.200,141.200 187.007,141.200 186.772 C 141.200 186.537,141.740 185.559,142.400 184.600 C 143.060 183.641,143.604 182.708,143.610 182.528 C 143.615 182.348,144.244 181.390,145.008 180.400 C 145.771 179.410,146.838 177.943,147.378 177.139 C 148.228 175.876,154.609 167.835,155.785 166.545 C 161.625 160.145,166.952 154.623,175.800 145.800 C 185.577 136.051,189.907 131.450,191.578 129.035 C 191.895 128.576,192.480 127.909,192.878 127.553 C 193.275 127.197,193.600 126.736,193.600 126.529 C 193.600 126.321,193.915 125.802,194.300 125.375 C 195.037 124.559,196.575 121.806,198.533 117.800 C 199.609 115.598,199.895 114.948,200.823 112.600 C 201.928 109.805,202.631 103.488,202.202 100.200 C 201.951 98.275,201.723 97.525,200.753 95.438 C 200.300 94.464,200.526 93.600,201.235 93.600 C 201.448 93.600,203.290 95.273,205.328 97.317 " stroke="none" fill="#3464ac" fill-rule="evenodd"></path><path id="path2" d="M200.806 94.500 C 200.809 94.775,200.972 95.253,201.168 95.561 C 201.422 95.963,201.506 95.821,201.462 95.062 C 201.402 94.027,200.794 93.506,200.806 94.500 M221.746 134.200 C 221.747 136.400,221.814 137.249,221.895 136.087 C 221.976 134.924,221.976 133.124,221.893 132.087 C 221.811 131.049,221.745 132.000,221.746 134.200 M171.385 150.500 L 169.400 152.600 171.500 150.615 C 172.655 149.523,173.600 148.578,173.600 148.515 C 173.600 148.217,173.229 148.549,171.385 150.500 M160.581 161.700 L 159.000 163.400 160.700 161.819 C 162.281 160.348,162.584 160.000,162.281 160.000 C 162.216 160.000,161.451 160.765,160.581 161.700 M156.175 166.500 L 155.000 167.800 156.300 166.625 C 157.512 165.530,157.784 165.200,157.475 165.200 C 157.406 165.200,156.821 165.785,156.175 166.500 M238.800 180.200 C 237.828 181.190,237.123 182.000,237.233 182.000 C 237.343 182.000,238.228 181.190,239.200 180.200 C 240.172 179.210,240.877 178.400,240.767 178.400 C 240.657 178.400,239.772 179.210,238.800 180.200 M229.100 183.882 C 229.595 183.978,230.405 183.978,230.900 183.882 C 231.395 183.787,230.990 183.709,230.000 183.709 C 229.010 183.709,228.605 183.787,229.100 183.882 M263.400 185.600 C 264.483 186.700,265.460 187.600,265.570 187.600 C 265.680 187.600,264.883 186.700,263.800 185.600 C 262.717 184.500,261.740 183.600,261.630 183.600 C 261.520 183.600,262.317 184.500,263.400 185.600 M235.200 225.800 C 235.946 226.570,236.647 227.200,236.757 227.200 C 236.867 227.200,236.346 226.570,235.600 225.800 C 234.854 225.030,234.153 224.400,234.043 224.400 C 233.933 224.400,234.454 225.030,235.200 225.800 M282.142 229.800 C 282.141 231.780,282.208 232.640,282.292 231.712 C 282.376 230.784,282.377 229.164,282.295 228.112 C 282.212 227.060,282.143 227.820,282.142 229.800 M127.293 228.400 C 127.293 229.170,127.375 229.485,127.476 229.100 C 127.576 228.715,127.576 228.085,127.476 227.700 C 127.375 227.315,127.293 227.630,127.293 228.400 M173.362 229.662 C 173.192 229.936,173.251 230.015,173.508 229.857 C 173.745 229.710,174.022 229.907,174.123 230.295 C 174.263 230.832,174.318 230.785,174.354 230.100 C 174.403 229.143,173.837 228.893,173.362 229.662 M127.293 238.800 C 127.293 239.570,127.375 239.885,127.476 239.500 C 127.576 239.115,127.576 238.485,127.476 238.100 C 127.375 237.715,127.293 238.030,127.293 238.800 M156.124 263.400 C 156.126 264.720,156.201 265.212,156.290 264.493 C 156.379 263.774,156.377 262.694,156.286 262.093 C 156.195 261.492,156.122 262.080,156.124 263.400 M260.175 277.300 L 259.000 278.600 260.300 277.425 C 261.015 276.779,261.600 276.194,261.600 276.125 C 261.600 275.816,261.270 276.088,260.175 277.300 M146.400 279.800 C 147.146 280.570,147.847 281.200,147.957 281.200 C 148.067 281.200,147.546 280.570,146.800 279.800 C 146.054 279.030,145.353 278.400,145.243 278.400 C 145.133 278.400,145.654 279.030,146.400 279.800 M175.467 295.133 C 175.572 295.537,175.916 295.867,176.231 295.867 C 176.694 295.867,176.677 295.727,176.140 295.133 C 175.775 294.730,175.431 294.400,175.375 294.400 C 175.320 294.400,175.361 294.730,175.467 295.133 M225.368 295.236 L 224.611 296.072 226.206 295.783 C 228.163 295.428,228.491 295.200,227.043 295.200 C 226.418 295.200,226.058 295.029,226.200 294.800 C 226.622 294.118,226.161 294.359,225.368 295.236 " stroke="none" fill="#7b8dbf" fill-rule="evenodd"></path><path id="path3" d="M201.446 95.500 C 201.590 96.105,201.866 96.870,202.059 97.200 C 202.290 97.594,202.325 97.422,202.162 96.700 C 202.025 96.095,202.082 95.600,202.287 95.600 C 202.851 95.600,208.424 101.482,210.341 104.100 C 211.837 106.143,212.942 107.240,212.153 105.900 C 210.621 103.296,202.399 94.400,201.525 94.400 C 201.338 94.400,201.302 94.895,201.446 95.500 M202.475 99.200 C 202.486 99.750,202.632 100.740,202.800 101.400 L 203.105 102.600 203.125 101.200 C 203.135 100.430,202.989 99.440,202.800 99.000 C 202.488 98.274,202.458 98.293,202.475 99.200 M202.620 105.718 C 202.445 107.213,202.400 108.533,202.518 108.652 C 202.811 108.944,203.322 104.695,203.108 103.753 C 203.013 103.339,202.794 104.223,202.620 105.718 M201.829 110.229 C 201.681 110.815,201.638 111.372,201.732 111.466 C 201.827 111.560,202.024 111.158,202.171 110.571 C 202.319 109.985,202.362 109.428,202.268 109.334 C 202.173 109.240,201.976 109.642,201.829 110.229 M214.013 109.476 C 214.006 109.738,214.161 110.052,214.357 110.173 C 214.745 110.413,216.716 114.373,217.814 117.117 C 218.191 118.061,218.598 118.735,218.717 118.616 C 218.837 118.497,218.739 117.994,218.499 117.499 C 218.260 117.005,217.431 115.250,216.658 113.600 C 215.188 110.463,214.034 108.665,214.013 109.476 M200.667 114.067 C 199.813 116.239,200.060 116.486,201.000 114.400 C 201.399 113.516,201.635 112.702,201.525 112.592 C 201.415 112.481,201.029 113.145,200.667 114.067 M198.089 119.712 C 194.730 126.553,189.474 132.870,176.549 145.600 C 167.888 154.130,165.409 156.692,158.743 164.007 C 154.343 168.834,153.044 170.404,153.464 170.385 C 153.649 170.377,154.292 169.722,154.894 168.929 C 157.125 165.988,163.615 159.118,173.567 149.164 C 188.724 134.003,191.369 131.085,195.473 125.000 C 197.247 122.369,200.149 116.815,199.886 116.553 C 199.795 116.462,198.987 117.884,198.089 119.712 M218.834 119.600 C 218.846 119.930,219.011 120.560,219.200 121.000 L 219.544 121.800 219.566 121.000 C 219.578 120.560,219.413 119.930,219.200 119.600 C 218.855 119.067,218.815 119.067,218.834 119.600 M219.844 123.000 C 220.173 124.471,220.402 124.790,220.394 123.767 C 220.391 123.345,220.205 122.730,219.982 122.400 C 219.685 121.962,219.648 122.124,219.844 123.000 M220.655 126.400 C 220.797 127.390,221.055 130.540,221.227 133.400 L 221.542 138.600 221.390 132.588 C 221.307 129.281,221.049 126.131,220.818 125.588 C 220.474 124.782,220.444 124.931,220.655 126.400 M220.859 139.800 C 220.826 140.460,220.346 142.871,219.791 145.159 C 219.237 147.446,218.861 149.394,218.955 149.489 C 219.163 149.697,219.305 149.216,220.405 144.560 C 220.878 142.558,221.187 140.398,221.092 139.760 L 220.920 138.600 220.859 139.800 M218.446 150.467 C 218.421 150.834,218.296 151.464,218.170 151.867 C 217.952 152.562,217.963 152.563,218.397 151.887 C 218.648 151.496,218.773 150.866,218.673 150.487 C 218.511 149.868,218.488 149.866,218.446 150.467 M217.422 154.222 C 217.272 155.025,217.238 155.772,217.348 155.882 C 217.458 155.992,217.672 155.425,217.822 154.622 C 217.973 153.819,218.006 153.073,217.896 152.963 C 217.786 152.853,217.573 153.419,217.422 154.222 M216.622 157.822 C 216.472 158.625,216.438 159.372,216.548 159.482 C 216.658 159.592,216.872 159.025,217.022 158.222 C 217.173 157.419,217.206 156.673,217.096 156.563 C 216.986 156.453,216.773 157.019,216.622 157.822 M215.854 162.256 C 215.521 164.691,215.597 168.741,216.000 170.000 C 216.198 170.618,216.335 168.975,216.360 165.700 C 216.402 160.102,216.272 159.212,215.854 162.256 M243.019 170.900 C 242.933 171.175,242.782 172.245,242.683 173.279 C 242.457 175.634,241.216 178.078,239.066 180.400 L 237.400 182.200 239.329 180.400 C 241.612 178.269,242.864 175.789,243.116 172.900 C 243.345 170.272,243.274 170.265,248.114 173.436 C 261.528 182.225,272.743 195.155,277.187 206.955 C 277.427 207.591,277.719 208.015,277.836 207.897 C 278.530 207.203,272.840 197.215,268.553 191.600 C 261.605 182.500,243.882 168.132,243.019 170.900 M151.955 171.900 C 150.508 173.500,149.729 174.596,150.271 174.271 C 150.782 173.965,153.369 170.800,153.108 170.800 C 153.021 170.800,152.502 171.295,151.955 171.900 M216.427 172.011 C 216.348 173.802,221.917 182.616,222.659 181.874 C 222.737 181.796,222.110 181.004,221.264 180.115 C 219.931 178.714,218.354 175.944,216.872 172.400 C 216.642 171.850,216.442 171.675,216.427 172.011 M147.466 177.700 C 145.701 180.050,143.297 183.718,140.258 188.700 C 140.090 188.975,140.031 189.200,140.126 189.200 C 140.221 189.200,141.249 187.715,142.410 185.900 C 144.494 182.641,145.197 181.611,148.412 177.100 C 150.757 173.809,150.054 174.255,147.466 177.700 M190.721 181.900 C 188.452 184.327,185.130 189.785,186.400 189.000 C 186.620 188.864,186.800 188.575,186.800 188.358 C 186.800 187.807,190.552 182.304,191.415 181.588 C 192.078 181.039,192.108 181.093,191.865 182.400 C 190.890 187.652,194.812 194.854,202.000 201.008 C 204.937 203.522,222.807 215.791,222.791 215.282 C 222.786 215.127,219.787 213.020,216.127 210.600 C 197.824 198.500,192.311 192.284,192.311 183.749 C 192.311 180.465,192.192 180.327,190.721 181.900 M223.200 182.190 C 223.200 182.495,225.656 183.677,225.862 183.471 C 225.965 183.368,225.471 182.995,224.763 182.642 C 223.376 181.950,223.200 181.899,223.200 182.190 M227.216 184.046 C 228.521 184.410,232.014 184.417,232.926 184.058 C 233.325 183.900,231.982 183.771,229.942 183.771 C 227.901 183.771,226.675 183.895,227.216 184.046 M184.272 193.340 C 183.738 195.033,183.289 198.118,183.797 196.600 C 184.592 194.225,185.278 191.545,185.129 191.396 C 185.027 191.293,184.641 192.168,184.272 193.340 M136.629 195.543 C 135.725 197.293,135.856 197.641,136.823 196.055 C 137.274 195.315,137.557 194.623,137.451 194.518 C 137.345 194.412,136.976 194.873,136.629 195.543 M135.259 198.445 C 135.059 198.970,134.601 200.103,134.242 200.961 C 133.883 201.820,133.656 202.590,133.738 202.671 C 133.820 202.753,134.368 201.711,134.956 200.356 C 135.543 199.000,135.934 197.801,135.823 197.690 C 135.713 197.579,135.459 197.919,135.259 198.445 M183.334 200.800 C 183.334 202.450,183.405 203.125,183.491 202.300 C 183.578 201.475,183.578 200.125,183.491 199.300 C 183.405 198.475,183.334 199.150,183.334 200.800 M183.646 204.600 C 183.715 206.231,184.315 207.587,184.354 206.200 C 184.373 205.540,184.213 204.730,184.000 204.400 C 183.681 203.906,183.618 203.941,183.646 204.600 M131.873 207.093 C 130.944 209.933,131.079 210.705,132.034 208.014 C 132.461 206.812,132.750 205.650,132.678 205.433 C 132.605 205.215,132.243 205.962,131.873 207.093 M130.278 212.478 C 129.942 213.645,129.459 215.680,129.205 217.000 C 128.951 218.320,128.576 220.051,128.372 220.846 C 128.167 221.642,128.031 223.262,128.070 224.446 C 128.139 226.583,128.141 226.585,128.289 224.800 C 128.451 222.853,130.129 214.261,130.784 212.026 C 131.005 211.271,131.119 210.586,131.037 210.504 C 130.956 210.422,130.614 211.310,130.278 212.478 M278.812 211.200 C 278.812 211.530,278.987 212.070,279.200 212.400 C 279.545 212.933,279.588 212.933,279.588 212.400 C 279.588 212.070,279.413 211.530,279.200 211.200 C 278.855 210.667,278.812 210.667,278.812 211.200 M186.977 213.400 C 187.905 215.180,190.494 218.894,192.231 220.939 C 192.577 221.346,193.673 222.786,194.668 224.139 C 196.825 227.076,197.179 227.442,196.178 225.703 C 195.767 224.990,194.378 223.100,193.091 221.503 C 190.438 218.212,187.604 214.203,187.591 213.722 C 187.586 213.545,187.211 212.950,186.758 212.400 C 186.101 211.603,186.146 211.807,186.977 213.400 M279.656 214.000 C 279.656 214.330,279.811 214.960,280.000 215.400 C 280.217 215.904,280.344 215.978,280.344 215.600 C 280.344 215.270,280.189 214.640,280.000 214.200 C 279.783 213.696,279.656 213.622,279.656 214.000 M223.374 215.958 C 223.523 216.199,224.016 216.595,224.471 216.838 C 225.062 217.154,225.220 217.156,225.026 216.842 C 224.877 216.601,224.384 216.205,223.929 215.962 C 223.338 215.646,223.180 215.644,223.374 215.958 M280.468 217.200 C 280.487 218.850,281.117 220.556,281.132 219.000 C 281.138 218.340,280.989 217.440,280.800 217.000 C 280.487 216.273,280.457 216.291,280.468 217.200 M225.600 217.487 C 225.600 217.674,226.095 218.121,226.700 218.480 C 227.305 218.839,228.511 219.733,229.380 220.466 C 230.249 221.200,232.319 222.949,233.980 224.353 C 235.895 225.972,236.341 226.257,235.200 225.132 C 231.645 221.628,225.600 216.814,225.600 217.487 M281.282 221.800 C 281.276 222.460,281.410 223.900,281.582 225.000 L 281.893 227.000 281.899 225.000 C 281.903 223.900,281.768 222.460,281.600 221.800 L 281.295 220.600 281.282 221.800 M127.459 228.900 C 126.800 234.384,127.635 243.379,129.435 250.200 C 129.726 251.300,130.078 252.650,130.217 253.200 C 130.658 254.937,130.814 255.320,131.002 255.131 C 131.103 255.030,130.823 253.699,130.379 252.174 C 128.450 245.544,127.406 237.090,127.777 231.100 C 128.058 226.562,127.884 225.361,127.459 228.900 M196.830 227.500 C 196.890 228.111,198.342 230.984,198.370 230.549 C 198.407 229.990,197.261 227.200,196.995 227.200 C 196.888 227.200,196.813 227.335,196.830 227.500 M239.010 229.700 C 242.992 234.072,247.273 241.284,248.805 246.200 C 249.612 248.790,250.038 249.599,249.751 248.000 C 249.418 246.144,246.804 240.106,245.156 237.387 C 242.827 233.544,237.812 227.235,237.066 227.211 C 236.883 227.205,237.758 228.325,239.010 229.700 M170.641 231.653 C 168.733 233.442,167.244 234.977,167.331 235.065 C 167.419 235.152,168.890 233.868,170.601 232.212 C 173.921 228.998,174.239 228.810,174.524 229.900 C 174.637 230.331,174.725 230.177,174.754 229.500 C 174.822 227.884,174.454 228.077,170.641 231.653 M173.967 233.164 C 173.652 236.718,174.984 243.150,175.854 242.279 C 175.936 242.197,175.689 241.516,175.304 240.765 C 174.817 239.813,174.543 238.068,174.399 235.000 C 174.207 230.877,174.180 230.762,173.967 233.164 M198.600 235.376 C 198.600 237.436,198.732 238.914,198.894 238.661 C 199.259 238.089,199.242 233.247,198.872 232.315 C 198.722 231.938,198.600 233.315,198.600 235.376 M281.678 233.844 C 281.635 234.748,281.505 236.368,281.390 237.444 C 281.216 239.062,281.253 239.231,281.606 238.421 C 281.841 237.882,281.971 236.262,281.895 234.821 C 281.812 233.254,281.725 232.862,281.678 233.844 M166.159 236.500 C 164.454 238.467,163.822 239.325,164.271 239.063 C 164.530 238.912,165.310 238.071,166.004 237.194 C 167.351 235.494,167.462 234.997,166.159 236.500 M162.334 241.700 C 159.815 245.535,157.672 250.680,156.378 256.000 C 155.298 260.440,155.996 272.129,157.426 273.560 C 157.700 273.833,157.333 272.057,156.692 270.000 C 154.454 262.823,157.454 249.731,163.425 240.618 C 163.792 240.058,164.007 239.600,163.903 239.600 C 163.798 239.600,163.093 240.545,162.334 241.700 M280.619 241.927 C 280.455 242.877,280.417 243.750,280.534 243.868 C 280.826 244.159,281.326 241.373,281.100 240.721 C 281.000 240.435,280.784 240.977,280.619 241.927 M196.247 243.600 C 195.665 244.480,195.011 245.200,194.794 245.200 C 194.577 245.200,194.400 245.411,194.400 245.670 C 194.400 246.328,196.357 244.429,197.048 243.100 C 197.883 241.496,197.468 241.755,196.247 243.600 M177.025 244.086 C 179.134 246.393,182.379 248.423,183.887 248.379 C 184.279 248.368,183.633 247.987,182.451 247.533 C 181.163 247.038,179.488 245.924,178.274 244.754 C 175.976 242.538,175.262 242.157,177.025 244.086 M279.829 245.429 C 279.681 246.015,279.651 246.584,279.761 246.694 C 279.871 246.804,280.081 246.415,280.229 245.829 C 280.376 245.242,280.406 244.673,280.296 244.563 C 280.186 244.453,279.976 244.842,279.829 245.429 M192.400 246.824 C 191.630 247.230,191.295 247.570,191.656 247.581 C 192.016 247.591,192.736 247.246,193.256 246.813 C 194.402 245.858,194.229 245.861,192.400 246.824 M279.029 248.229 C 278.881 248.815,278.851 249.384,278.961 249.494 C 279.071 249.604,279.281 249.215,279.429 248.629 C 279.576 248.042,279.606 247.473,279.496 247.363 C 279.386 247.253,279.176 247.642,279.029 248.229 M185.905 248.683 C 186.402 248.779,187.122 248.775,187.505 248.675 C 187.887 248.575,187.480 248.496,186.600 248.501 C 185.720 248.505,185.407 248.587,185.905 248.683 M250.056 250.200 C 250.056 250.640,250.211 251.360,250.400 251.800 L 250.744 252.600 250.744 251.800 C 250.744 251.360,250.589 250.640,250.400 250.200 L 250.056 249.400 250.056 250.200 M275.827 256.135 C 272.390 263.215,268.137 269.023,262.047 274.950 C 257.834 279.052,257.340 279.773,260.832 276.724 C 267.131 271.223,279.408 253.663,277.958 252.226 C 277.871 252.140,276.912 253.899,275.827 256.135 M250.904 258.800 C 250.909 263.881,250.927 264.010,251.221 260.986 C 251.393 259.218,251.391 256.788,251.217 255.586 C 250.969 253.880,250.901 254.586,250.904 258.800 M131.217 255.772 C 131.167 256.866,135.452 265.993,136.488 267.000 C 137.054 267.550,136.896 267.186,134.835 263.200 C 133.868 261.330,132.662 258.810,132.155 257.600 C 131.648 256.390,131.226 255.567,131.217 255.772 M250.276 265.610 C 250.130 266.155,250.027 267.050,250.046 267.600 C 250.071 268.318,250.184 268.157,250.449 267.027 C 250.855 265.295,250.700 264.025,250.276 265.610 M138.729 270.428 C 142.775 276.197,150.892 284.008,155.697 286.756 C 156.414 287.165,158.212 288.243,159.693 289.150 C 161.174 290.058,162.478 290.800,162.591 290.800 C 162.704 290.800,164.172 291.435,165.853 292.212 C 167.534 292.988,169.000 293.533,169.110 293.423 C 169.221 293.313,168.825 293.038,168.232 292.812 C 167.638 292.586,166.168 291.951,164.965 291.401 C 163.761 290.850,162.717 290.400,162.645 290.400 C 162.573 290.400,160.641 289.275,158.352 287.900 C 150.698 283.302,143.456 276.708,139.313 270.565 C 138.385 269.189,137.405 267.926,137.135 267.760 C 136.865 267.593,137.582 268.794,138.729 270.428 M247.308 274.790 C 243.583 282.516,235.666 290.239,227.400 294.211 C 225.971 294.898,225.900 294.995,226.741 295.123 C 228.161 295.339,230.025 294.792,229.071 294.439 C 228.495 294.226,228.910 293.838,231.055 292.585 C 235.887 289.762,240.636 285.491,244.122 280.830 C 245.949 278.389,249.502 271.762,249.161 271.433 C 249.072 271.348,248.238 272.858,247.308 274.790 M157.608 274.271 C 157.596 274.967,160.667 280.842,161.648 282.000 L 162.495 283.000 161.757 281.800 C 161.351 281.140,160.253 279.070,159.317 277.200 C 158.381 275.330,157.612 274.012,157.608 274.271 M255.200 280.850 C 252.444 282.973,251.352 283.963,252.400 283.388 C 254.025 282.496,258.631 278.690,257.924 278.823 C 257.856 278.836,256.630 279.748,255.200 280.850 M163.251 284.400 C 164.607 286.489,169.498 291.261,171.995 292.932 C 173.866 294.184,174.043 294.402,173.195 294.412 C 172.305 294.423,172.276 294.469,172.924 294.846 C 173.323 295.077,173.886 295.176,174.176 295.065 C 174.465 294.954,174.904 295.064,175.151 295.311 C 175.432 295.592,175.600 295.606,175.600 295.351 C 175.600 295.125,174.328 294.072,172.773 293.009 C 169.931 291.068,166.710 288.090,163.871 284.782 C 162.616 283.320,162.505 283.251,163.251 284.400 M250.400 284.400 C 249.850 284.830,249.597 285.186,249.838 285.191 C 250.079 285.196,250.602 284.840,251.000 284.400 C 251.912 283.392,251.688 283.392,250.400 284.400 M244.852 287.606 C 242.570 288.896,239.510 290.444,238.052 291.047 C 234.802 292.391,233.746 293.192,236.800 291.996 C 239.563 290.915,247.069 287.032,248.400 285.996 C 249.941 284.797,249.340 285.070,244.852 287.606 M230.400 294.000 C 229.867 294.345,229.867 294.388,230.400 294.388 C 230.730 294.388,231.270 294.213,231.600 294.000 C 232.133 293.655,232.133 293.612,231.600 293.612 C 231.270 293.612,230.730 293.787,230.400 294.000 " stroke="none" fill="#9eaccc" fill-rule="evenodd"></path><path id="path4" d="M200.534 94.227 C 200.402 94.572,200.488 95.048,200.725 95.285 C 201.032 95.592,201.086 95.451,200.913 94.790 C 200.716 94.035,200.797 93.913,201.356 94.128 C 201.763 94.284,201.942 94.230,201.797 93.995 C 201.431 93.404,200.806 93.518,200.534 94.227 M204.600 96.800 C 205.459 97.680,206.252 98.400,206.362 98.400 C 206.472 98.400,205.859 97.680,205.000 96.800 C 204.141 95.920,203.348 95.200,203.238 95.200 C 203.128 95.200,203.741 95.920,204.600 96.800 M202.075 99.800 C 202.065 100.460,202.211 101.360,202.400 101.800 L 202.744 102.600 202.725 101.800 C 202.714 101.360,202.568 100.460,202.400 99.800 L 202.095 98.600 202.075 99.800 M202.249 104.215 C 202.112 104.573,202.025 105.616,202.056 106.533 C 202.109 108.101,202.129 108.070,202.392 106.000 C 202.690 103.655,202.651 103.168,202.249 104.215 M216.610 113.087 C 217.366 114.579,218.003 116.070,218.024 116.400 C 218.048 116.774,218.136 116.821,218.256 116.526 C 218.458 116.031,216.164 110.949,215.575 110.584 C 215.388 110.469,215.854 111.596,216.610 113.087 M220.406 123.433 C 220.409 123.855,220.595 124.470,220.818 124.800 C 221.115 125.238,221.152 125.076,220.956 124.200 C 220.627 122.729,220.398 122.410,220.406 123.433 M221.228 128.033 C 221.244 128.565,221.419 129.360,221.619 129.800 C 221.871 130.358,221.907 130.115,221.738 129.000 C 221.455 127.143,221.187 126.636,221.228 128.033 M189.775 131.300 L 188.600 132.600 189.900 131.425 C 190.615 130.779,191.200 130.194,191.200 130.125 C 191.200 129.816,190.870 130.088,189.775 131.300 M182.414 139.390 L 179.828 142.200 182.596 139.515 C 184.118 138.038,185.281 136.773,185.181 136.705 C 185.082 136.636,183.836 137.844,182.414 139.390 M221.400 139.200 C 221.248 139.891,221.207 140.541,221.309 140.642 C 221.411 140.744,221.609 140.253,221.750 139.550 C 222.083 137.883,221.760 137.560,221.400 139.200 M169.592 151.900 L 165.800 155.800 169.787 152.000 C 171.981 149.910,173.856 148.155,173.954 148.100 C 174.053 148.045,173.965 148.000,173.759 148.000 C 173.553 148.000,171.678 149.755,169.592 151.900 M218.954 150.177 C 218.832 150.494,218.803 151.079,218.889 151.477 C 218.987 151.928,219.124 151.712,219.254 150.900 C 219.471 149.538,219.330 149.196,218.954 150.177 M217.254 157.200 C 217.219 157.750,217.096 158.650,216.983 159.200 L 216.777 160.200 217.207 159.215 C 217.443 158.674,217.565 157.774,217.478 157.215 L 217.320 156.200 217.254 157.200 M162.981 158.900 L 161.400 160.600 163.100 159.019 C 164.035 158.149,164.800 157.384,164.800 157.319 C 164.800 157.016,164.452 157.319,162.981 158.900 M216.557 165.600 C 216.557 168.570,216.620 169.785,216.697 168.300 C 216.774 166.815,216.774 164.385,216.697 162.900 C 216.620 161.415,216.557 162.630,216.557 165.600 M157.218 164.934 L 155.837 166.600 157.518 165.019 C 158.443 164.149,159.200 163.384,159.200 163.319 C 159.200 162.859,158.394 163.516,157.218 164.934 M151.574 171.700 C 150.610 172.855,150.139 173.547,150.526 173.238 C 151.304 172.618,153.768 169.600,153.496 169.600 C 153.402 169.600,152.537 170.545,151.574 171.700 M148.719 175.300 C 147.557 176.848,147.096 177.600,147.309 177.600 C 147.394 177.600,148.046 176.790,148.757 175.800 C 150.232 173.746,150.200 173.327,148.719 175.300 M217.879 174.700 C 218.167 175.494,219.200 177.097,219.200 176.750 C 219.200 176.402,217.963 174.000,217.783 174.000 C 217.696 174.000,217.739 174.315,217.879 174.700 M145.944 179.100 C 144.675 180.632,144.219 181.342,144.681 181.065 C 145.193 180.758,146.969 178.400,146.689 178.400 C 146.598 178.400,146.263 178.715,145.944 179.100 M223.363 181.700 C 224.027 182.305,224.847 182.799,225.185 182.798 C 225.523 182.796,225.260 182.514,224.601 182.170 C 223.941 181.826,223.121 181.332,222.779 181.072 C 222.436 180.813,222.699 181.095,223.363 181.700 M237.799 180.801 C 237.663 181.022,236.752 181.566,235.776 182.011 C 234.799 182.456,234.000 182.916,234.000 183.034 C 234.000 183.151,234.135 183.177,234.300 183.091 C 234.465 183.005,235.250 182.638,236.045 182.275 C 237.330 181.688,238.860 180.400,238.273 180.400 C 238.149 180.400,237.936 180.580,237.799 180.801 M228.512 183.495 C 229.564 183.577,231.184 183.576,232.112 183.492 C 233.040 183.408,232.180 183.341,230.200 183.342 C 228.220 183.343,227.460 183.412,228.512 183.495 M191.246 184.800 C 191.227 185.350,191.387 186.070,191.600 186.400 C 192.094 187.164,192.094 186.342,191.600 184.800 L 191.280 183.800 191.246 184.800 M269.775 192.932 C 270.391 193.739,270.976 194.400,271.075 194.400 C 271.353 194.400,269.621 192.060,269.109 191.744 C 268.859 191.589,269.159 192.124,269.775 192.932 M196.400 195.845 C 196.400 196.053,197.615 197.388,199.100 198.812 L 201.800 201.400 199.200 198.610 C 197.770 197.076,196.555 195.741,196.500 195.644 C 196.445 195.546,196.400 195.637,196.400 195.845 M183.734 200.800 C 183.734 202.450,183.805 203.125,183.891 202.300 C 183.978 201.475,183.978 200.125,183.891 199.300 C 183.805 198.475,183.734 199.150,183.734 200.800 M129.254 214.667 C 129.225 215.144,129.096 215.864,128.970 216.267 C 128.752 216.961,128.764 216.962,129.196 216.288 C 129.447 215.897,129.575 215.177,129.481 214.688 C 129.309 213.801,129.309 213.801,129.254 214.667 M220.995 214.792 C 221.122 214.997,222.668 216.158,224.430 217.373 C 226.193 218.587,227.531 219.412,227.405 219.208 C 227.278 219.003,225.732 217.842,223.970 216.627 C 222.207 215.413,220.869 214.588,220.995 214.792 M281.152 218.087 C 281.337 219.198,281.393 219.255,281.519 218.454 C 281.601 217.933,281.503 217.343,281.301 217.141 C 281.079 216.919,281.021 217.293,281.152 218.087 M281.903 223.296 C 282.113 226.690,282.331 227.120,282.362 224.200 C 282.376 222.880,282.244 221.573,282.068 221.296 C 281.892 221.020,281.818 221.920,281.903 223.296 M230.000 221.325 C 230.000 221.394,230.585 221.979,231.300 222.625 L 232.600 223.800 231.425 222.500 C 230.330 221.288,230.000 221.016,230.000 221.325 M127.473 225.353 C 127.323 225.745,127.211 226.366,127.225 226.733 C 127.242 227.175,127.381 227.074,127.637 226.434 C 127.849 225.903,127.961 225.282,127.885 225.054 C 127.809 224.827,127.624 224.961,127.473 225.353 M237.000 228.000 C 237.859 228.880,238.652 229.600,238.762 229.600 C 238.872 229.600,238.259 228.880,237.400 228.000 C 236.541 227.120,235.748 226.400,235.638 226.400 C 235.528 226.400,236.141 227.120,237.000 228.000 M172.522 230.629 L 171.400 231.658 172.700 230.754 C 173.415 230.257,174.000 229.793,174.000 229.725 C 174.000 229.409,173.558 229.680,172.522 230.629 M199.197 235.682 C 199.088 237.597,199.143 239.020,199.318 238.844 C 199.493 238.668,199.581 237.101,199.515 235.362 L 199.393 232.200 199.197 235.682 M167.834 235.300 C 166.607 236.675,165.603 237.949,165.602 238.131 C 165.601 238.313,166.082 237.863,166.672 237.131 C 167.261 236.399,168.377 235.125,169.153 234.300 C 169.928 233.475,170.450 232.800,170.313 232.800 C 170.176 232.800,169.060 233.925,167.834 235.300 M173.443 233.433 C 173.101 234.323,173.140 236.716,173.500 236.938 C 173.665 237.039,173.810 236.150,173.821 234.961 C 173.844 232.618,173.809 232.477,173.443 233.433 M281.996 236.082 C 281.888 237.777,281.944 239.019,282.120 238.842 C 282.295 238.665,282.384 237.279,282.316 235.760 L 282.192 233.000 281.996 236.082 M127.206 240.633 C 127.209 241.055,127.395 241.670,127.618 242.000 C 127.915 242.438,127.952 242.276,127.756 241.400 C 127.427 239.929,127.198 239.610,127.206 240.633 M246.291 241.100 C 246.786 242.402,247.595 243.803,247.598 243.361 C 247.600 242.863,246.424 240.400,246.183 240.400 C 246.096 240.400,246.145 240.715,246.291 241.100 M281.168 242.500 C 281.049 243.360,281.110 243.850,281.312 243.648 C 281.505 243.455,281.598 242.781,281.519 242.149 C 281.387 241.091,281.359 241.119,281.168 242.500 M176.400 244.125 C 176.400 244.194,176.973 244.779,177.674 245.425 L 178.949 246.600 177.974 245.322 C 177.147 244.237,176.400 243.669,176.400 244.125 M247.818 244.900 C 247.968 245.395,248.255 245.976,248.456 246.191 C 248.657 246.406,248.619 246.001,248.372 245.291 C 247.865 243.838,247.397 243.508,247.818 244.900 M182.341 248.501 C 182.543 248.703,183.133 248.801,183.654 248.719 C 184.455 248.593,184.398 248.537,183.287 248.352 C 182.493 248.221,182.119 248.279,182.341 248.501 M129.844 253.400 C 130.173 254.871,130.402 255.190,130.394 254.167 C 130.391 253.745,130.205 253.130,129.982 252.800 C 129.685 252.362,129.648 252.524,129.844 253.400 M250.557 258.800 C 250.557 261.770,250.620 262.985,250.697 261.500 C 250.774 260.015,250.774 257.585,250.697 256.100 C 250.620 254.615,250.557 255.830,250.557 258.800 M130.770 256.246 C 131.291 257.990,131.958 259.600,132.160 259.600 C 132.385 259.600,131.023 255.690,130.678 255.344 C 130.539 255.205,130.580 255.611,130.770 256.246 M249.701 267.000 C 249.705 267.880,249.787 268.193,249.883 267.695 C 249.979 267.198,249.975 266.478,249.875 266.095 C 249.775 265.713,249.696 266.120,249.701 267.000 M135.613 266.656 C 135.631 267.144,136.757 268.576,136.961 268.371 C 137.055 268.277,136.787 267.775,136.366 267.256 C 135.945 266.736,135.606 266.466,135.613 266.656 M248.987 269.400 C 248.884 269.730,248.712 270.279,248.605 270.621 C 248.497 270.962,248.566 271.145,248.757 271.027 C 248.948 270.909,249.191 270.359,249.297 269.806 C 249.506 268.713,249.290 268.430,248.987 269.400 M263.814 273.935 C 261.402 276.501,260.308 277.790,261.382 276.800 C 264.464 273.959,268.964 269.054,268.323 269.235 C 268.255 269.254,266.226 271.369,263.814 273.935 M140.409 273.489 C 140.420 273.901,144.786 278.548,144.978 278.352 C 145.059 278.269,144.063 277.070,142.763 275.689 C 141.463 274.309,140.404 273.319,140.409 273.489 M246.885 274.813 C 246.618 275.240,246.401 275.817,246.402 276.095 C 246.404 276.373,246.677 276.078,247.010 275.440 C 247.703 274.111,247.611 273.650,246.885 274.813 M255.400 281.412 C 253.835 282.695,254.257 282.686,256.000 281.400 C 256.745 280.850,257.185 280.406,256.978 280.414 C 256.770 280.422,256.060 280.871,255.400 281.412 M239.586 285.100 L 237.400 287.400 239.700 285.214 C 241.837 283.182,242.183 282.800,241.886 282.800 C 241.824 282.800,240.789 283.835,239.586 285.100 M250.890 284.566 C 248.210 286.403,247.011 287.448,249.000 286.213 C 251.760 284.500,254.163 282.802,253.795 282.823 C 253.578 282.836,252.271 283.620,250.890 284.566 M163.200 283.464 C 163.200 283.682,163.695 284.297,164.300 284.830 L 165.400 285.800 164.400 284.600 C 163.850 283.940,163.355 283.325,163.300 283.233 C 163.245 283.142,163.200 283.245,163.200 283.464 M167.200 288.200 C 168.395 289.410,169.463 290.400,169.573 290.400 C 169.683 290.400,168.795 289.410,167.600 288.200 C 166.405 286.990,165.337 286.000,165.227 286.000 C 165.117 286.000,166.005 286.990,167.200 288.200 M246.300 287.429 C 244.805 288.240,244.896 288.578,246.400 287.800 C 247.060 287.459,247.600 287.094,247.600 286.990 C 247.600 286.732,247.557 286.747,246.300 287.429 M176.200 295.203 L 177.000 296.120 175.800 295.832 C 174.889 295.613,174.710 295.656,175.058 296.009 C 175.578 296.539,176.866 296.403,177.068 295.797 C 177.142 295.575,176.797 295.145,176.301 294.840 L 175.400 294.287 176.200 295.203 M224.598 295.603 C 224.221 296.214,225.453 296.526,226.276 296.028 C 226.871 295.667,226.793 295.636,225.840 295.853 C 225.019 296.040,224.763 295.983,224.964 295.658 C 225.120 295.406,225.157 295.200,225.047 295.200 C 224.937 295.200,224.735 295.381,224.598 295.603 " stroke="none" fill="#647cbc" fill-rule="evenodd"></path></g></svg>